<svg xmlns="http://www.w3.org/2000/svg" width="126" height="31" viewBox="0 0 126 31" fill="none"><path d="M96.9489 16.3734C97.6903 17.499 97.6339 18.8455 96.8253 19.3814C96.0141 19.9173 94.7569 19.4406 94.0155 18.315C93.2741 17.1893 93.3306 15.8429 94.1391 15.307C94.9504 14.7711 96.2048 15.2477 96.9489 16.3734Z" fill="white"/><path d="M99.5357 14.5799C97.1101 11.1706 93.1801 9.81063 90.7598 11.5422C88.3395 13.2738 88.3422 17.4398 90.7652 20.8464C93.1909 24.2556 97.1181 25.6183 99.5411 23.8867C101.961 22.1551 101.961 17.9891 99.5357 14.5799ZM98.3323 21.8185C96.7018 22.9603 94.0531 21.9882 92.4172 19.6426C90.7813 17.297 90.7813 14.4694 92.4119 13.3276C94.0424 12.1831 96.691 13.158 98.3269 15.5035C99.9601 17.8491 99.9628 20.6767 98.3323 21.8185Z" fill="white"/><path d="M101.625 28.6452C101.497 28.7502 101.368 28.8552 101.233 28.9602C96.6801 32.6954 90.0129 30.5168 85.8412 25.0366C81.6695 19.5564 82.513 13.1257 86.1233 9.11855C86.2468 9.02429 86.3704 8.93543 86.4913 8.85194C82.924 11.9946 83.2329 18.622 87.2756 23.9379C91.3372 29.2699 97.6633 31.3058 101.625 28.6425V28.6452Z" fill="white"/><path d="M102.23 14.0574C102.012 13.71 101.773 13.3707 101.515 13.0341C101.37 12.8402 101.217 12.6517 101.064 12.4713C101.016 12.412 100.97 12.3582 100.925 12.307C96.7394 7.38967 90.5879 5.6931 86.838 8.56379C86.7198 8.65266 86.6043 8.74692 86.4968 8.84656C86.4914 8.84656 86.4914 8.85194 86.4914 8.85194C82.9241 11.9946 83.2331 18.622 87.2758 23.9379C91.3374 29.2699 97.6634 31.3058 101.626 28.6425C101.631 28.6425 101.631 28.6344 101.636 28.629C101.741 28.559 101.849 28.4836 101.953 28.4055C105.644 25.5806 105.698 19.341 102.227 14.0547L102.23 14.0574ZM100.946 26.2377C97.6876 28.7313 92.2722 27.1048 88.8499 22.6103C85.4304 18.1157 85.288 12.4551 88.5464 9.95875C91.7994 7.46776 97.2122 9.09431 100.634 13.5888C104.062 18.0834 104.196 23.744 100.946 26.2377Z" fill="white"/><path d="M106.106 6.0755C106.106 6.0755 108.502 1.1447 109.109 0.859248C109.394 0.721908 109.515 1.20125 109.587 2.02799C109.767 1.97413 110.047 1.87449 110.047 1.87449L106.106 6.0782V6.0755Z" fill="white"/><path d="M106.487 6.10513C106.487 6.10513 110.952 5.18414 111.355 4.0154C111.425 3.78111 111.271 3.56029 110.296 3.19135C110.334 2.89782 110.353 2.14918 110.353 2.14918L106.487 6.10513Z" fill="white"/><path d="M95.7909 17.4613C95.4659 17.631 95.2053 17.2809 95.2778 17.0655C95.3289 16.9173 95.4256 16.885 96.2717 16.0529C101.051 11.386 109.077 2.70393 111.081 0.689594C111.143 0.630349 111.57 1.01813 111.57 1.11777C111.395 1.33052 97.8405 15.0565 96.9675 16.2387C96.1428 17.1866 95.7909 17.4613 95.7909 17.4613Z" fill="white"/><path d="M8.23059 17.7279L19.5557 8.26757C19.7249 8.12484 19.7894 7.89056 19.7142 7.68051C19.639 7.47045 19.4402 7.33311 19.2172 7.33311H17.2348C17.208 7.33311 17.1784 7.33042 17.1489 7.33042C16.6358 7.33042 16.069 7.6455 15.3598 8.31874C15.0724 8.59342 12.2304 11.3348 5.55242 17.7791C5.18173 18.0538 4.98563 18.1049 4.91579 18.113C4.91042 18.0888 4.90504 18.0538 4.90236 18.0053V9.09431C4.97757 8.58534 4.80297 8.24064 4.64179 8.03867C4.29259 7.60241 3.65058 7.37351 2.68354 7.33311H0.5265C0.236388 7.33311 0 7.5674 0 7.86093V29.48C0 29.7735 0.236388 30.0078 0.5265 30.0078H3.14557C4.52897 30.0078 4.8352 29.2996 4.89699 28.8795C4.89967 28.8525 4.90236 28.8283 4.90236 28.8041V20.7521C4.90773 20.7306 4.91042 20.709 4.91579 20.6929C4.94265 20.7063 4.96951 20.7252 4.99906 20.7494C5.29455 21.0187 7.97003 23.472 13.9173 28.9279C14.6534 29.585 15.6096 29.9486 16.762 30.0105H19.3113C19.5262 30.0105 19.7169 29.8812 19.8002 29.682C19.8807 29.4827 19.8351 29.2565 19.6846 29.1057L8.23059 17.7279Z" fill="white"/><path d="M40.9004 7.59433C40.8064 7.43006 40.6318 7.33042 40.4438 7.33042H38.3431C38.3243 7.33042 38.3055 7.33042 38.2867 7.33311C37.7763 7.38697 37.1048 7.67781 36.7771 8.76307L32.42 18.8482C26.4029 8.32681 26.2363 8.12484 26.1557 8.0279C25.7743 7.57279 25.2639 7.33311 24.6783 7.33311H21.6886C21.5005 7.33311 21.3286 7.43275 21.2319 7.59433C21.1379 7.75591 21.1352 7.95519 21.2265 8.11946C25.5809 15.9748 27.8991 20.1462 28.1194 20.5124C28.5223 21.2018 28.6996 21.7835 28.6351 22.1928C28.6298 22.2198 28.6298 22.2467 28.6298 22.2763V29.4827C28.6298 29.7735 28.8661 30.0105 29.1563 30.0105H31.4852C32.549 30.0105 33.0701 29.5285 33.3199 29.1164C33.4596 28.901 33.5321 28.6344 33.5321 28.322C33.5536 25.5025 33.5536 23.4316 33.5321 22.1686C33.5563 20.9729 33.7685 20.4424 33.9431 20.2081C33.9565 20.192 33.9673 20.1731 33.978 20.157L40.8977 8.12754C40.9918 7.96327 40.9918 7.76399 40.8977 7.59972L40.9004 7.59433Z" fill="white"/><path d="M80.8526 7.35735H79.4638C79.4423 7.35735 79.4208 7.35735 79.3993 7.36005C78.8809 7.42468 78.0428 7.78015 78.2254 9.4417L78.717 25.7422C69.1218 11.0413 67.6014 8.77385 67.3946 8.50186C66.8224 7.73975 66.0783 7.35466 65.1811 7.35466H62.8414C62.5486 7.35466 62.3149 7.59164 62.3149 7.88517V29.5042C62.3149 29.6766 62.3982 29.8381 62.5379 29.9378C62.6265 30.0024 62.734 30.0347 62.8414 30.0347C62.9005 30.0347 62.9623 30.024 63.0187 30.0024C63.4727 29.8408 64.0368 29.4154 64.1443 28.3085L65.525 13.5754C72.023 23.4505 75.4237 28.6102 75.6386 28.9145C75.644 28.9225 75.6494 28.9306 75.6574 28.9387C76.235 29.6658 76.885 30.0347 77.5915 30.0347H80.0172C80.3019 30.0347 80.5329 29.8112 80.5437 29.5258L81.3844 7.90402C81.3898 7.7613 81.3388 7.62126 81.2367 7.51624C81.1373 7.41121 81.0003 7.35466 80.8553 7.35466L80.8526 7.35735Z" fill="white"/><path d="M125.852 7.51893C125.753 7.4139 125.616 7.35735 125.473 7.35735H124.082C124.06 7.35735 124.039 7.35735 124.017 7.36005C123.499 7.42468 122.661 7.78015 122.844 9.4417L123.335 25.7422C113.743 11.044 112.22 8.77385 112.013 8.50186C111.441 7.73975 110.694 7.35466 109.799 7.35466H107.46C107.169 7.35466 106.933 7.59164 106.933 7.88517V29.5042C106.933 29.6766 107.016 29.8381 107.156 29.9378C107.247 30.0024 107.352 30.0347 107.46 30.0347C107.519 30.0347 107.58 30.024 107.637 30.0024C108.091 29.8408 108.652 29.4154 108.76 28.3085L110.14 13.5754C116.641 23.4531 120.042 28.6102 120.254 28.9145C120.259 28.9225 120.268 28.9306 120.273 28.9387C120.85 29.6658 121.5 30.0347 122.204 30.0347H124.63C124.912 30.0347 125.146 29.8112 125.156 29.5258L125.997 7.90402C126.003 7.7613 125.949 7.62126 125.849 7.51624L125.852 7.51893Z" fill="white"/><path d="M49.8296 7.62665C49.7436 7.44622 49.561 7.33042 49.3595 7.33042H47.9869C47.7558 7.33042 47.5597 7.35197 47.3878 7.39775C46.8533 7.50816 46.5148 7.73975 46.3832 8.09253L37.7711 29.3373C37.7067 29.4988 37.7255 29.6793 37.8222 29.8247C37.9189 29.9674 38.0801 30.0536 38.2547 30.0536H39.6273C40.0356 30.0536 40.4063 29.9324 40.7287 29.69C40.8818 29.5823 41.0618 29.3938 41.3116 29.0841C41.3465 29.0383 41.3761 28.9872 41.3949 28.9333L42.9959 24.4415H51.1808C51.624 24.4415 51.8577 24.5249 51.9813 24.6003C52.0457 24.6623 52.1935 24.8373 52.4433 25.3113C52.6689 25.7422 53.0155 26.4989 53.4721 27.5599C54.0873 29.2484 54.8609 30.0724 55.8333 30.0724C55.9112 30.0724 55.9918 30.067 56.0724 30.0563H59.7337C59.9137 30.0563 60.0802 29.962 60.1742 29.8139C60.271 29.6604 60.279 29.4719 60.2038 29.3103L49.8323 7.62934L49.8296 7.62665ZM47.4335 12.0673C47.4657 12.1131 51.4924 22.5887 51.4924 22.5887C51.4709 22.5887 51.4467 22.5887 51.4225 22.5914H43.611C43.611 22.5914 47.4228 12.0943 47.4335 12.0646V12.0673Z" fill="white"/></svg>