<svg width="90" height="90" viewBox="0 0 90 90" fill="none" xmlns="http://www.w3.org/2000/svg">
<path d="M38.8869 3.67783C41.8656 -0.550488 48.1344 -0.550488 51.1131 3.67783C53.1937 6.63136 57.0884 7.67495 60.367 6.15742C65.0608 3.9849 70.4898 7.11934 70.9552 12.2705C71.2803 15.8686 74.1314 18.7198 77.7295 19.0449C82.8807 19.5103 86.0151 24.9393 83.8426 29.633C82.3251 32.9116 83.3687 36.8063 86.3222 38.887C90.5505 41.8656 90.5505 48.1344 86.3222 51.1131C83.3687 53.1937 82.3251 57.0884 83.8426 60.367C86.0151 65.0608 82.8807 70.4898 77.7295 70.9552C74.1314 71.2803 71.2803 74.1314 70.9552 77.7295C70.4898 82.8807 65.0608 86.0151 60.367 83.8426C57.0884 82.3251 53.1937 83.3687 51.1131 86.3222C48.1344 90.5505 41.8656 90.5505 38.887 86.3222C36.8063 83.3687 32.9116 82.3251 29.633 83.8426C24.9393 86.0151 19.5103 82.8807 19.0449 77.7295C18.7198 74.1314 15.8686 71.2803 12.2705 70.9552C7.11934 70.4898 3.9849 65.0608 6.15742 60.367C7.67495 57.0884 6.63136 53.1937 3.67783 51.1131C-0.550487 48.1344 -0.550488 41.8656 3.67783 38.8869C6.63136 36.8063 7.67495 32.9116 6.15742 29.633C3.9849 24.9393 7.11934 19.5103 12.2705 19.0449C15.8686 18.7198 18.7198 15.8686 19.0449 12.2705C19.5103 7.11934 24.9393 3.9849 29.633 6.15742C32.9116 7.67495 36.8063 6.63136 38.8869 3.67783Z" fill="#D9D9D9"/>
</svg>
