<svg width="92" height="92" viewBox="0 0 92 92" fill="none" xmlns="http://www.w3.org/2000/svg">
<path d="M41.0222 3.39688C43.4001 -0.136645 48.5999 -0.13665 50.9778 3.39688L56.5976 11.7477C57.9444 13.749 60.3589 14.7492 62.7265 14.2864L72.6051 12.3552C76.7852 11.5381 80.462 15.2149 79.6448 19.3949L77.7137 29.2735C77.2508 31.6411 78.251 34.0556 80.2524 35.4025L88.6031 41.0222C92.1367 43.4001 92.1367 48.5999 88.6031 50.9778L80.2524 56.5975C78.251 57.9444 77.2508 60.3589 77.7137 62.7265L79.6448 72.6051C80.462 76.7851 76.7852 80.4619 72.6051 79.6448L62.7265 77.7136C60.3589 77.2508 57.9444 78.2509 56.5976 80.2523L50.9778 88.6031C48.5999 92.1366 43.4002 92.1366 41.0222 88.6031L35.4025 80.2523C34.0556 78.2509 31.6411 77.2508 29.2736 77.7136L19.3949 79.6448C15.2149 80.4619 11.5381 76.7851 12.3552 72.6051L14.2864 62.7265C14.7492 60.3589 13.7491 57.9444 11.7477 56.5975L3.39691 50.9778C-0.136614 48.5999 -0.13662 43.4001 3.39691 41.0222L11.7477 35.4025C13.7491 34.0556 14.7492 31.6411 14.2864 29.2735L12.3552 19.3949C11.5381 15.2149 15.2149 11.5381 19.3949 12.3552L29.2736 14.2863C31.6411 14.7492 34.0556 13.7491 35.4025 11.7477L41.0222 3.39688Z" fill="#D9D9D9"/>
</svg>
