<svg width="100" height="100" viewBox="0 0 100 100" fill="none" xmlns="http://www.w3.org/2000/svg">
<path d="M50 0L52.9166 35.3373L69.1342 3.80602L58.3058 37.5695L85.3553 14.6447L62.4305 41.6942L96.194 30.8658L64.6627 47.0834L100 50L64.6627 52.9166L96.194 69.1342L62.4305 58.3058L85.3553 85.3553L58.3058 62.4305L69.1342 96.194L52.9166 64.6627L50 100L47.0834 64.6627L30.8658 96.194L41.6942 62.4305L14.6447 85.3553L37.5695 58.3058L3.80602 69.1342L35.3373 52.9166L0 50L35.3373 47.0834L3.80602 30.8658L37.5695 41.6942L14.6447 14.6447L41.6942 37.5695L30.8658 3.80602L47.0834 35.3373L50 0Z" fill="#D9D9D9"/>
</svg>
