<svg width="80" height="80" viewBox="0 0 80 80" fill="none" xmlns="http://www.w3.org/2000/svg">
<path d="M29.7907 6.52804C34.48 -1.06357 45.52 -1.06357 50.2094 6.52805L57.6016 18.4954C58.5816 20.082 59.918 21.4184 61.5046 22.3984L73.472 29.7907C81.0636 34.48 81.0636 45.52 73.472 50.2093L61.5046 57.6015C59.918 58.5816 58.5816 59.918 57.6016 61.5046L50.2094 73.4719C45.52 81.0636 34.48 81.0636 29.7907 73.4719L22.3985 61.5046C21.4184 59.918 20.082 58.5816 18.4954 57.6015L6.52806 50.2093C-1.06355 45.52 -1.06355 34.48 6.52806 29.7907L18.4954 22.3984C20.082 21.4184 21.4184 20.082 22.3985 18.4954L29.7907 6.52804Z" fill="#D9D9D9"/>
</svg>
