<svg width="417" height="308" viewBox="0 0 417 308" fill="none" xmlns="http://www.w3.org/2000/svg">
<path d="M208.204 87.0006C291.046 87.1538 358.148 116.919 358.023 184.646C357.898 252.374 290.639 307.153 207.796 307C124.954 306.847 57.8983 251.819 58.0236 184.091C58.1489 116.364 125.361 86.8473 208.204 87.0006Z" fill="#D9D9D9"/>
<path d="M76.0445 44.0828C76.7535 38.7411 82.9793 36.17 87.2509 39.4549L183.362 113.365C187.634 116.65 186.747 123.327 181.767 125.384L69.7034 171.663C64.7228 173.72 59.3833 169.614 60.0923 164.272L76.0445 44.0828Z" fill="#D9D9D9"/>
<path d="M329.156 39.455C333.428 36.1702 339.654 38.7413 340.363 44.0831L356.314 164.273C357.023 169.615 351.683 173.721 346.703 171.664L234.64 125.383C229.659 123.326 228.773 116.649 233.045 113.364L329.156 39.455Z" fill="#D9D9D9"/>
<path d="M214.548 237.671C211.362 242.209 204.638 242.209 201.452 237.671L189.994 221.346C186.273 216.045 190.065 208.75 196.542 208.75H219.458C225.935 208.75 229.727 216.045 226.006 221.346L214.548 237.671Z" fill="#363636"/>
<path d="M164.063 250.354L169.805 254.118C179.892 260.731 193.263 259.198 201.592 250.474L208.461 243.279" stroke="#2E2E2A" stroke-width="3"/>
<path d="M251.336 250.261L245.59 254.017C235.494 260.617 222.125 259.067 213.807 250.332L206.947 243.129" stroke="#2E2E2A" stroke-width="3"/>
<ellipse cx="156.5" cy="197" rx="7.5" ry="12" fill="#2D2D2E"/>
<ellipse cx="255.5" cy="196" rx="7.5" ry="12" fill="#2D2D2E"/>
<path d="M349.064 192.13C353.142 191.945 357.235 190.771 361.285 190.26C365.696 189.702 370.065 189.511 374.503 189.511" stroke="#D9D9D9" stroke-width="3" stroke-linecap="round"/>
<path d="M346.071 209.713C352.136 209.161 357.989 210.087 364.028 210.087" stroke="#D9D9D9" stroke-width="3" stroke-linecap="round"/>
<path d="M63.6256 183.526C60.6512 182.888 57.897 181.097 54.8758 180.367C49.9945 179.187 45.0194 178.249 40.0573 177.54" stroke="#D9D9D9" stroke-width="3" stroke-linecap="round"/>
<path d="M42.3019 194.001H68.1148" stroke="#D9D9D9" stroke-width="3" stroke-linecap="round"/>
<path d="M68.4888 208.216C65.0976 208.738 61.5853 210.491 58.4297 211.708C51.8983 214.226 45.2888 216.395 38.5608 218.317" stroke="#D9D9D9" stroke-width="3" stroke-linecap="round"/>
<path d="M344.201 222.806C343.912 222.806 344.768 222.938 345.032 223.056C346.96 223.916 348.767 225.07 350.685 225.965C355.475 228.201 360.518 230.038 365.151 232.533" stroke="#D9D9D9" stroke-width="3" stroke-linecap="round"/>
<path d="M86.1341 53.1057L95 108L75.3587 127.868L86.1341 53.1057Z" fill="#2D2D2E"/>
<path d="M333.924 55.0679L324.4 108L344.699 129.83L333.924 55.0679Z" fill="#2D2D2E"/>
</svg>
